<?xml version="1.0" encoding="UTF-8" standalone="no"?><!DOCTYPE svg PUBLIC "-//W3C//DTD SVG 1.1//EN" "http://www.w3.org/Graphics/SVG/1.1/DTD/svg11.dtd"><svg width="100%" height="100%" viewBox="0 0 897 909" version="1.1" xmlns="http://www.w3.org/2000/svg" xmlns:xlink="http://www.w3.org/1999/xlink" xml:space="preserve" xmlns:serif="http://www.serif.com/" style="fill-rule:evenodd;clip-rule:evenodd;stroke-linejoin:round;stroke-miterlimit:10;"><g id="Capa-2"><path d="M131.433,526.005c114.2,-269.379 2.692,-366.226 2.692,-366.226l74.325,-76.146c69.442,91.203 182.063,58.391 195.029,49.531c12.971,-8.86 14.188,-34.634 14.188,-34.634l33.229,-2.819l33.021,2.819c-0,0 -0.796,29.865 14.096,34.634c85.225,27.287 135.7,5.434 190.891,-44.702l73.863,80.765c-0,-0 -114.167,100.37 5.596,356.778" style="fill:none;fill-rule:nonzero;stroke:#03c03c;stroke-width:16.67px;"/><path d="M78.87,540.455c54.17,-124.908 83.274,-271.564 -10.499,-385.568c64.458,-71.752 64.458,-71.752 128.917,-143.503c75.379,70.01 176.825,145.611 210.066,-3.051c20.9,0.339 21.884,0.339 42.788,0.678c20.508,-0.339 20.508,-0.339 41.016,-0.678c32.488,148.088 131.554,73.629 206.113,3.051c63.246,71.751 63.246,71.751 126.492,143.503c-91.096,112.871 -63.942,256.901 -12.451,380.859" style="fill:none;fill-rule:nonzero;stroke:#03c03c;stroke-width:16.67px;"/><path d="M77.195,689.197c241.079,-54.329 482.676,-57.812 724.852,-4.512c-5.332,21.782 -11.514,39.94 -17.739,48.803c-56.612,80.6 -118.27,90.125 -208.437,109.271c-46.871,9.95 -83.667,35.309 -126.217,57.709c-43.571,-22.505 -80.912,-47.767 -128.637,-57.709c-91.271,-19.016 -154.475,-28.304 -212.434,-109.271c-9.023,-12.606 -20.593,-27.813 -31.388,-44.291" style="fill:none;fill-rule:nonzero;stroke:#03c03c;stroke-width:16.67px;"/><path d="M8.333,559.218l44.9,136.354c40.896,-9.354 81.829,-18.716 123.152,-25.948c42.095,-7.367 84.413,-13.797 126.957,-17.825c142.914,-13.532 283.025,-6.128 424.371,18.004c42.741,7.298 85.112,16.668 127.45,26.031l33.095,-139.858c-280.639,-80.079 -599.582,-78.229 -879.925,3.242Z" style="fill:none;fill-rule:nonzero;stroke:#03c03c;stroke-width:16.67px;"/><g transform="matrix(4.16667,0,0,4.16667,-433.679,-222.595)"><g transform="matrix(0.981218,-0.192904,0.192904,0.981218,-37.4341,28.6574)"><text x="128.445px" y="206.561px" style="font-family:'Verdana-Bold', 'Verdana', sans-serif;font-weight:700;font-size:18px;fill:#03c03c;">M</text></g><g transform="matrix(0.987179,-0.15962,0.15962,0.987179,-30.5878,25.7817)"><text x="145.19px" y="203.291px" style="font-family:'Verdana-Bold', 'Verdana', sans-serif;font-weight:700;font-size:18px;fill:#03c03c;">U</text></g><g transform="matrix(0.99192,-0.126862,0.126862,0.99192,-24.203,21.8741)"><text x="159.626px" y="200.948px" style="font-family:'Verdana-Bold', 'Verdana', sans-serif;font-weight:700;font-size:18px;fill:#03c03c;">N</text></g><g transform="matrix(0.995597,-0.0937349,0.0937349,0.995597,-17.8873,17.2555)"><text x="174.739px" y="199.036px" style="font-family:'Verdana-Bold', 'Verdana', sans-serif;font-weight:700;font-size:18px;fill:#03c03c;">T</text></g><g transform="matrix(0.998165,-0.0605562,0.0605562,0.998165,-11.6399,11.6848)"><text x="186.961px" y="197.882px" style="font-family:'Verdana-Bold', 'Verdana', sans-serif;font-weight:700;font-size:18px;fill:#03c03c;">T</text></g><g transform="matrix(0.9998,-0.0200105,0.0200105,0.9998,-3.90449,4.02548)"><text x="199.196px" y="197.115px" style="font-family:'Verdana-Bold', 'Verdana', sans-serif;font-weight:700;font-size:18px;fill:#03c03c;">A</text></g><g transform="matrix(0.999521,0.0309472,-0.0309472,0.999521,6.193,-6.50315)"><text x="213.183px" y="196.815px" style="font-family:'Verdana-Bold', 'Verdana', sans-serif;font-weight:700;font-size:18px;fill:#03c03c;">R</text></g><g transform="matrix(0.997599,0.0692558,-0.0692558,0.997599,14.2055,-15.2638)"><text x="227.236px" y="197.238px" style="font-family:'Verdana-Bold', 'Verdana', sans-serif;font-weight:700;font-size:18px;fill:#03c03c;">P</text></g><g transform="matrix(0.994908,0.100787,-0.100787,0.994908,21.1956,-23.222)"><text x="240.418px" y="198.154px" style="font-family:'Verdana-Bold', 'Verdana', sans-serif;font-weight:700;font-size:18px;fill:#03c03c;">E</text></g><g transform="matrix(0.989595,0.143878,-0.143878,0.989595,31.4848,-35.1494)"><text x="258.772px" y="200.117px" style="font-family:'Verdana-Bold', 'Verdana', sans-serif;font-weight:700;font-size:18px;fill:#03c03c;">K</text></g><g transform="matrix(0.986731,0.162364,-0.162364,0.986731,36.4359,-41.5615)"><text x="272.497px" y="202.14px" style="font-family:'Verdana-Bold', 'Verdana', sans-serif;font-weight:700;font-size:18px;fill:#03c03c;">.</text></g><g transform="matrix(0.983497,0.180922,-0.180922,0.983497,41.3597,-47.1079)"><text x="278.908px" y="203.165px" style="font-family:'Verdana-Bold', 'Verdana', sans-serif;font-weight:700;font-size:18px;fill:#03c03c;">E</text></g><g transform="matrix(0.980033,0.198834,-0.198834,0.980033,46.6533,-53.7584)"><text x="290.995px" y="205.412px" style="font-family:'Verdana-Bold', 'Verdana', sans-serif;font-weight:700;font-size:18px;fill:#03c03c;">.</text></g></g><path d="M409.404,708.205l13.413,13.458l-10.725,27.067l-21.45,14.333l-13.7,-5.641m-1.175,13.283c-0,-41.35 33.521,-74.871 74.871,-74.871c41.35,0 74.87,33.521 74.87,74.871c0,41.35 -33.52,74.867 -74.87,74.867c-41.35,-0 -74.871,-33.517 -74.871,-74.867Zm47.05,-49.042l30.375,-6.812l15.125,-16.913l-15.125,16.913l18.746,22.25l27.05,5.054l10.941,-17.167l-10.941,17.167l5.729,29.917l18.791,15.866l-18.791,-15.866l-24.025,11.154l-9.425,31.179l12.608,10.721l25.504,-8l-25.504,8l-7.162,15.779l7.162,-15.779l-12.608,-10.721l-29.846,4.838l-6.413,14.712l15.63,11.617l-15.63,-11.617l-24.491,-0.033l24.491,0.033m6.413,-14.712l-21.021,-22.28l-23.75,-3.575l-8.408,18.7l8.408,-18.7l-6.008,-30.325l6.008,30.325l23.75,3.575l9.775,-29.008l-18.083,-19.225l18.083,19.225l31.317,-5.15l10.446,-25.704l-10.446,25.704l19.2,20.421" style="fill:none;fill-rule:nonzero;stroke:#03c03c;stroke-width:8.33px;"/></g></svg>